<svg xmlns="http://www.w3.org/2000/svg" xmlns:xlink="http://www.w3.org/1999/xlink" width="2062" height="5709" viewBox="0 0 2062 5709">
  <defs>
    <clipPath id="clip-Web_1920_1">
      <rect width="2062" height="5709"/>
    </clipPath>
  </defs>
  <g id="Web_1920_1" data-name="Web 1920 – 1" clip-path="url(#clip-Web_1920_1)">
    <rect width="2062" height="5709" fill="#0d2542"/>
    <path id="Path_1" data-name="Path 1" d="M219.731-2.405,85.976,755.117,64.052,879.278l-6.33,35.851L0,1242.038" transform="translate(-1.239 0.5)" fill="none" stroke="#d98723" stroke-width="3"/>
    <g id="Group_1" data-name="Group 1">
      <path id="Path_2" data-name="Path 2" d="M749.075-2.405,293.095,606.117l-74.737,99.739-21.58,28.8L0,997.265" transform="translate(0 0.5)" fill="none" stroke="#d98723" stroke-width="3"/>
      <path id="Path_3" data-name="Path 3" d="M2028.544,1284.447,793.721,501.109,591.328,372.717l-58.439-37.072L0-2.405" transform="matrix(0.999, -0.035, 0.035, 0.999, -10.135, 257.413)" fill="none" stroke="#d98723" stroke-width="3"/>
      <path id="Path_4" data-name="Path 4" d="M0-2.405,727.347,1581.652l119.215,259.633,34.422,74.967,313.887,683.6" transform="translate(868.128 0.5)" fill="none" stroke="#d98723" stroke-width="3"/>
      <path id="Path_5" data-name="Path 5" d="M1610.175-2.405l-980.152,1010L469.372,1173.139l-46.387,47.8L0,1656.805" transform="translate(-10.219 114.049)" fill="none" stroke="#d98723" stroke-width="3"/>
      <path id="Path_6" data-name="Path 6" d="M0-2.405,315.326,646.016,367.009,752.3l14.923,30.687L518.011,1062.81" transform="translate(1544.989 0.5)" fill="none" stroke="#d98723" stroke-width="3"/>
      <path id="Path_7" data-name="Path 7" d="M0-2.405l727.126,1582.84L846.3,1839.868l34.412,74.91,313.792,683.076" transform="translate(868.492 2.5)" fill="none" stroke="#d98723" stroke-width="3"/>
      <path id="Path_8" data-name="Path 8" d="M2105.226,359.638,823.725,139.254,613.681,103.132,553.033,92.7,0-2.405" transform="translate(-42.226 1411.216)" fill="none" stroke="#d98723" stroke-width="3"/>
      <path id="Path_9" data-name="Path 9" d="M1397.014-2.405l-850.4,1038.284L407.235,1206.058,366.989,1255.2,0,1703.268" transform="translate(0 1151.232)" fill="none" stroke="#d98723" stroke-width="3"/>
      <path id="Path_10" data-name="Path 10" d="M0-2.405,831.217,989.229l136.24,162.533,39.338,46.93,358.713,427.941" transform="translate(697.492 2004.5)" fill="none" stroke="#d98723" stroke-width="3"/>
      <path id="Path_11" data-name="Path 11" d="M993.162-2.405,388.6,2249.315l-99.09,369.066L260.9,2724.947,0,3696.679" transform="translate(798.977 2012.321)" fill="none" stroke="#d98723" stroke-width="3"/>
      <path id="Path_12" data-name="Path 12" d="M0-2.405,622.9,1623.974l102.1,266.57,29.479,76.97,268.813,701.866" transform="translate(164.046 1593.84)" fill="none" stroke="#d98723" stroke-width="3"/>
    </g>
    <path id="Path_3-2" data-name="Path 3" d="M2028.544,1286.852,793.721,503.515,591.328,375.122,532.889,338.05,0,0" transform="matrix(-0.999, 0.035, -0.035, -0.999, 2072.993, 6891.086)" fill="none" stroke="#d98723" stroke-width="3"/>
    <path id="Path_4-2" data-name="Path 4" d="M1194.872,2599.854,467.525,1015.8,348.31,756.163,313.887,681.2,0-2.405" transform="translate(-0.226 4548.146)" fill="none" stroke="#d98723" stroke-width="3"/>
    <path id="Path_5-2" data-name="Path 5" d="M0,1664.725,985.153,649.9,1146.623,483.57l46.623-48.028L1618.39-2.406" transform="translate(454.603 5377.646)" fill="none" stroke="#d98723" stroke-width="3"/>
    <path id="Path_7-2" data-name="Path 7" d="M1194.508,2597.854,467.382,1015.014,348.2,755.58l-34.412-74.91L0-2.405" transform="translate(-0.226 4548.146)" fill="none" stroke="#d98723" stroke-width="3"/>
    <path id="Path_8-2" data-name="Path 8" d="M0-2.405,1281.5,217.979,1491.544,254.1l60.648,10.43,553.033,95.107" transform="translate(-0.226 5377.646)" fill="none" stroke="#d98723" stroke-width="3"/>
    <path id="Path_9-2" data-name="Path 9" d="M0,1703,848.86,664.879,987.992,494.727l40.173-49.13,366.327-448" transform="translate(668.282 4294)" fill="none" stroke="#d98723" stroke-width="3"/>
    <path id="Path_10-2" data-name="Path 10" d="M1365.508,1626.633,534.291,635,398.051,472.466l-39.338-46.93L0-2.406" transform="translate(-0.226 3517.367)" fill="none" stroke="#d98723" stroke-width="3"/>
    <path id="Path_11-2" data-name="Path 11" d="M3.074,3111.353l264.6-1884.132,43.873-313.545,12.668-90.534L439.735-2.406" transform="translate(258.282 2003.8)" fill="none" stroke="#d98723" stroke-width="3"/>
    <path id="Path_12-2" data-name="Path 12" d="M1824.687,2788.432,713.957,1089.583,531.9,811.134l-52.567-80.4L0-2.406" transform="translate(74.041 2766.228)" fill="none" stroke="#d98723" stroke-width="3"/>
  </g>
</svg>
